<svg width="320" height="52" viewBox="0 0 320 52" fill="none" xmlns="http://www.w3.org/2000/svg">
<mask id="path-1-inside-1_86_1168" fill="white">
<path fill-rule="evenodd" clip-rule="evenodd" d="M0 26C0 11.6406 11.6406 0 26 0H242C252.816 0 262.089 6.60419 266.007 16H269.993C273.911 6.60419 283.184 0 294 0C308.359 0 320 11.6406 320 26C320 40.3594 308.359 52 294 52C283.969 52 275.265 46.3196 270.929 38H265.071C260.735 46.3196 252.031 52 242 52H26C11.6406 52 0 40.3594 0 26Z"/>
</mask>
<path fill-rule="evenodd" clip-rule="evenodd" d="M0 26C0 11.6406 11.6406 0 26 0H242C252.816 0 262.089 6.60419 266.007 16H269.993C273.911 6.60419 283.184 0 294 0C308.359 0 320 11.6406 320 26C320 40.3594 308.359 52 294 52C283.969 52 275.265 46.3196 270.929 38H265.071C260.735 46.3196 252.031 52 242 52H26C11.6406 52 0 40.3594 0 26Z" fill="#E6E65C"/>
<path fill-rule="evenodd" clip-rule="evenodd" d="M0 26C0 11.6406 11.6406 0 26 0H242C252.816 0 262.089 6.60419 266.007 16H269.993C273.911 6.60419 283.184 0 294 0C308.359 0 320 11.6406 320 26C320 40.3594 308.359 52 294 52C283.969 52 275.265 46.3196 270.929 38H265.071C260.735 46.3196 252.031 52 242 52H26C11.6406 52 0 40.3594 0 26Z" fill="url(#paint0_linear_86_1168)" fill-opacity="0.15"/>
<path d="M266.007 16L264.623 16.5773L265.008 17.5H266.007V16ZM269.993 16V17.5H270.992L271.377 16.5773L269.993 16ZM270.929 38L272.259 37.3067L271.839 36.5H270.929V38ZM265.071 38V36.5H264.161L263.741 37.3067L265.071 38ZM26 -1.5C10.8122 -1.5 -1.5 10.8122 -1.5 26H1.5C1.5 12.469 12.469 1.5 26 1.5V-1.5ZM242 -1.5H26V1.5H242V-1.5ZM267.392 15.4227C263.249 5.4877 253.442 -1.5 242 -1.5V1.5C252.189 1.5 260.93 7.72068 264.623 16.5773L267.392 15.4227ZM269.993 14.5H266.007V17.5H269.993V14.5ZM271.377 16.5773C275.07 7.72068 283.811 1.5 294 1.5V-1.5C282.558 -1.5 272.751 5.4877 268.608 15.4227L271.377 16.5773ZM294 1.5C307.531 1.5 318.5 12.469 318.5 26H321.5C321.5 10.8122 309.188 -1.5 294 -1.5V1.5ZM318.5 26C318.5 39.531 307.531 50.5 294 50.5V53.5C309.188 53.5 321.5 41.1878 321.5 26H318.5ZM294 50.5C284.55 50.5 276.347 45.1501 272.259 37.3067L269.599 38.6933C274.183 47.4891 283.388 53.5 294 53.5V50.5ZM265.071 39.5H270.929V36.5H265.071V39.5ZM242 53.5C252.612 53.5 261.817 47.4891 266.401 38.6933L263.741 37.3067C259.653 45.1501 251.45 50.5 242 50.5V53.5ZM26 53.5H242V50.5H26V53.5ZM-1.5 26C-1.5 41.1878 10.8122 53.5 26 53.5V50.5C12.469 50.5 1.5 39.531 1.5 26H-1.5Z" fill="url(#paint1_linear_86_1168)" fill-opacity="0.34" mask="url(#path-1-inside-1_86_1168)"/>
<g filter="url(#filter0_d_86_1168)">
<path d="M39.0363 32.216C37.8003 32.216 36.7323 31.946 35.8323 31.406C34.9443 30.854 34.2543 30.092 33.7623 29.12C33.2823 28.136 33.0423 26.996 33.0423 25.7C33.0423 24.404 33.2823 23.27 33.7623 22.298C34.2543 21.314 34.9443 20.552 35.8323 20.012C36.7323 19.46 37.8003 19.184 39.0363 19.184C40.4763 19.184 41.6463 19.526 42.5463 20.21C43.4463 20.894 44.0223 21.86 44.2743 23.108H42.6003C42.4083 22.328 42.0183 21.704 41.4303 21.236C40.8423 20.756 40.0443 20.516 39.0363 20.516C38.1363 20.516 37.3503 20.726 36.6783 21.146C36.0183 21.554 35.5023 22.148 35.1303 22.928C34.7703 23.696 34.5903 24.62 34.5903 25.7C34.5903 26.78 34.7703 27.71 35.1303 28.49C35.5023 29.258 36.0183 29.852 36.6783 30.272C37.3503 30.68 38.1363 30.884 39.0363 30.884C40.0443 30.884 40.8423 30.656 41.4303 30.2C42.0183 29.732 42.4083 29.114 42.6003 28.346H44.2743C44.0223 29.558 43.4463 30.506 42.5463 31.19C41.6463 31.874 40.4763 32.216 39.0363 32.216ZM46.3582 32V22.982H47.7262L47.8522 24.71C48.0442 24.302 48.2962 23.954 48.6082 23.666C48.9322 23.378 49.3162 23.156 49.7602 23C50.2042 22.844 50.7082 22.766 51.2722 22.766V24.35H50.7862C50.3902 24.35 50.0122 24.404 49.6522 24.512C49.3042 24.608 48.9922 24.77 48.7162 24.998C48.4522 25.226 48.2422 25.538 48.0862 25.934C47.9422 26.318 47.8702 26.804 47.8702 27.392V32H46.3582ZM56.6476 32.216C55.7956 32.216 55.0396 32.024 54.3796 31.64C53.7196 31.244 53.1976 30.692 52.8136 29.984C52.4416 29.264 52.2556 28.436 52.2556 27.5C52.2556 26.54 52.4416 25.712 52.8136 25.016C53.1856 24.308 53.7016 23.756 54.3616 23.36C55.0336 22.964 55.8076 22.766 56.6836 22.766C57.5596 22.766 58.3096 22.964 58.9336 23.36C59.5576 23.756 60.0316 24.272 60.3556 24.908C60.6916 25.544 60.8596 26.24 60.8596 26.996C60.8596 27.116 60.8596 27.248 60.8596 27.392C60.8596 27.524 60.8536 27.674 60.8416 27.842H53.3896V26.672H59.3656C59.3296 25.844 59.0536 25.202 58.5376 24.746C58.0336 24.278 57.4036 24.044 56.6476 24.044C56.1316 24.044 55.6516 24.164 55.2076 24.404C54.7636 24.632 54.4036 24.968 54.1276 25.412C53.8636 25.856 53.7316 26.414 53.7316 27.086V27.59C53.7316 28.322 53.8696 28.94 54.1456 29.444C54.4216 29.948 54.7816 30.326 55.2256 30.578C55.6696 30.818 56.1436 30.938 56.6476 30.938C57.2716 30.938 57.7876 30.8 58.1956 30.524C58.6156 30.236 58.9216 29.846 59.1136 29.354H60.6076C60.4516 29.906 60.1936 30.398 59.8336 30.83C59.4736 31.25 59.0236 31.586 58.4836 31.838C57.9556 32.09 57.3436 32.216 56.6476 32.216ZM65.8516 32.216C65.1076 32.216 64.4896 32.09 63.9976 31.838C63.5176 31.586 63.1576 31.25 62.9176 30.83C62.6776 30.398 62.5576 29.93 62.5576 29.426C62.5576 28.814 62.7136 28.298 63.0256 27.878C63.3496 27.458 63.7996 27.14 64.3756 26.924C64.9636 26.696 65.6476 26.582 66.4276 26.582L68.8396 26.582C68.8396 26.018 68.7496 25.55 68.5696 25.178C68.4016 24.806 68.1496 24.524 67.8136 24.332C67.4776 24.14 67.0696 24.044 66.5896 24.044C66.0136 24.044 65.5096 24.194 65.0776 24.494C64.6576 24.782 64.3996 25.202 64.3036 25.754H62.7556C62.8276 25.118 63.0436 24.578 63.4036 24.134C63.7756 23.69 64.2436 23.354 64.8076 23.126C65.3716 22.886 65.9656 22.766 66.5896 22.766C67.4176 22.766 68.1076 22.922 68.6596 23.234C69.2236 23.534 69.6436 23.96 69.9196 24.512C70.2076 25.052 70.3516 25.694 70.3516 26.438V32H69.0016L68.9116 30.398C68.7916 30.65 68.6356 30.89 68.4436 31.118C68.2636 31.334 68.0476 31.526 67.7956 31.694C67.5556 31.85 67.2736 31.976 66.9496 32.072C66.6256 32.168 66.2596 32.216 65.8516 32.216ZM66.0856 30.938C66.5176 30.938 66.9016 30.854 67.2376 30.686C67.5736 30.506 67.8616 30.266 68.1016 29.966C68.3536 29.666 68.5396 29.33 68.6596 28.958C68.7796 28.574 68.8396 28.184 68.8396 27.788V27.752H66.5536C65.9776 27.752 65.5096 27.824 65.1496 27.968C64.7896 28.1 64.5316 28.286 64.3756 28.526C64.2196 28.766 64.1416 29.042 64.1416 29.354C64.1416 29.678 64.2136 29.96 64.3576 30.2C64.5136 30.44 64.7356 30.626 65.0236 30.758C65.3116 30.878 65.6656 30.938 66.0856 30.938ZM75.973 32C75.433 32 74.965 31.916 74.569 31.748C74.173 31.58 73.867 31.298 73.651 30.902C73.447 30.494 73.345 29.948 73.345 29.264V24.26H71.779V22.982H73.345L73.543 20.822H74.857V22.982H77.485V24.26H74.857V29.264C74.857 29.828 74.971 30.212 75.199 30.416C75.427 30.608 75.829 30.704 76.405 30.704H77.359V32H75.973ZM83.1906 32.216C82.3386 32.216 81.5826 32.024 80.9226 31.64C80.2626 31.244 79.7406 30.692 79.3566 29.984C78.9846 29.264 78.7986 28.436 78.7986 27.5C78.7986 26.54 78.9846 25.712 79.3566 25.016C79.7286 24.308 80.2446 23.756 80.9046 23.36C81.5766 22.964 82.3506 22.766 83.2266 22.766C84.1026 22.766 84.8526 22.964 85.4766 23.36C86.1006 23.756 86.5746 24.272 86.8986 24.908C87.2346 25.544 87.4026 26.24 87.4026 26.996C87.4026 27.116 87.4026 27.248 87.4026 27.392C87.4026 27.524 87.3966 27.674 87.3846 27.842H79.9326V26.672H85.9086C85.8726 25.844 85.5966 25.202 85.0806 24.746C84.5766 24.278 83.9466 24.044 83.1906 24.044C82.6746 24.044 82.1946 24.164 81.7506 24.404C81.3066 24.632 80.9466 24.968 80.6706 25.412C80.4066 25.856 80.2746 26.414 80.2746 27.086V27.59C80.2746 28.322 80.4126 28.94 80.6886 29.444C80.9646 29.948 81.3246 30.326 81.7686 30.578C82.2126 30.818 82.6866 30.938 83.1906 30.938C83.8146 30.938 84.3306 30.8 84.7386 30.524C85.1586 30.236 85.4646 29.846 85.6566 29.354H87.1506C86.9946 29.906 86.7366 30.398 86.3766 30.83C86.0166 31.25 85.5666 31.586 85.0266 31.838C84.4986 32.09 83.8866 32.216 83.1906 32.216ZM93.5039 32L98.1479 19.4H99.7499L104.376 32H102.774L98.9399 21.29L95.0879 32H93.5039ZM95.6279 28.76L96.0599 27.536H101.766L102.198 28.76H95.6279ZM109.771 32.216C108.919 32.216 108.151 32.018 107.467 31.622C106.795 31.226 106.261 30.674 105.865 29.966C105.481 29.258 105.289 28.436 105.289 27.5C105.289 26.552 105.481 25.724 105.865 25.016C106.261 24.308 106.795 23.756 107.467 23.36C108.151 22.964 108.919 22.766 109.771 22.766C110.851 22.766 111.745 23.048 112.453 23.612C113.173 24.164 113.635 24.908 113.839 25.844H112.291C112.159 25.28 111.859 24.842 111.391 24.53C110.923 24.218 110.377 24.062 109.753 24.062C109.249 24.062 108.775 24.194 108.331 24.458C107.887 24.71 107.527 25.094 107.251 25.61C106.975 26.114 106.837 26.744 106.837 27.5C106.837 28.052 106.915 28.544 107.071 28.976C107.239 29.408 107.455 29.774 107.719 30.074C107.995 30.362 108.307 30.578 108.655 30.722C109.015 30.866 109.381 30.938 109.753 30.938C110.173 30.938 110.557 30.872 110.905 30.74C111.253 30.596 111.547 30.392 111.787 30.128C112.039 29.852 112.207 29.528 112.291 29.156H113.839C113.647 30.068 113.185 30.806 112.453 31.37C111.733 31.934 110.839 32.216 109.771 32.216ZM120.054 32.216C119.202 32.216 118.434 32.018 117.75 31.622C117.078 31.226 116.544 30.674 116.148 29.966C115.764 29.258 115.572 28.436 115.572 27.5C115.572 26.552 115.764 25.724 116.148 25.016C116.544 24.308 117.078 23.756 117.75 23.36C118.434 22.964 119.202 22.766 120.054 22.766C121.134 22.766 122.028 23.048 122.736 23.612C123.456 24.164 123.918 24.908 124.122 25.844H122.574C122.442 25.28 122.142 24.842 121.674 24.53C121.206 24.218 120.66 24.062 120.036 24.062C119.532 24.062 119.058 24.194 118.614 24.458C118.17 24.71 117.81 25.094 117.534 25.61C117.258 26.114 117.12 26.744 117.12 27.5C117.12 28.052 117.198 28.544 117.354 28.976C117.522 29.408 117.738 29.774 118.002 30.074C118.278 30.362 118.59 30.578 118.938 30.722C119.298 30.866 119.664 30.938 120.036 30.938C120.456 30.938 120.84 30.872 121.188 30.74C121.536 30.596 121.83 30.392 122.07 30.128C122.322 29.852 122.49 29.528 122.574 29.156H124.122C123.93 30.068 123.468 30.806 122.736 31.37C122.016 31.934 121.122 32.216 120.054 32.216ZM130.301 32.216C129.461 32.216 128.705 32.024 128.033 31.64C127.361 31.244 126.827 30.692 126.431 29.984C126.047 29.276 125.855 28.448 125.855 27.5C125.855 26.54 126.053 25.706 126.449 24.998C126.845 24.29 127.379 23.744 128.051 23.36C128.735 22.964 129.497 22.766 130.337 22.766C131.189 22.766 131.951 22.964 132.623 23.36C133.295 23.744 133.823 24.29 134.207 24.998C134.591 25.706 134.783 26.54 134.783 27.5C134.783 28.448 134.585 29.276 134.189 29.984C133.805 30.692 133.271 31.244 132.587 31.64C131.915 32.024 131.153 32.216 130.301 32.216ZM130.301 30.92C130.829 30.92 131.315 30.794 131.759 30.542C132.203 30.29 132.557 29.906 132.821 29.39C133.097 28.874 133.235 28.244 133.235 27.5C133.235 26.732 133.103 26.096 132.839 25.592C132.575 25.088 132.221 24.71 131.777 24.458C131.333 24.194 130.853 24.062 130.337 24.062C129.833 24.062 129.353 24.194 128.897 24.458C128.453 24.71 128.093 25.088 127.817 25.592C127.541 26.096 127.403 26.732 127.403 27.5C127.403 28.244 127.541 28.874 127.817 29.39C128.093 29.906 128.447 30.29 128.879 30.542C129.323 30.794 129.797 30.92 130.301 30.92ZM140.197 32.216C139.501 32.216 138.889 32.078 138.361 31.802C137.845 31.514 137.443 31.082 137.155 30.506C136.879 29.93 136.741 29.204 136.741 28.328V22.982H138.253V28.166C138.253 29.09 138.445 29.78 138.829 30.236C139.225 30.692 139.789 30.92 140.521 30.92C141.037 30.92 141.493 30.8 141.889 30.56C142.297 30.308 142.615 29.948 142.843 29.48C143.083 29 143.203 28.424 143.203 27.752V22.982H144.715V32H143.347L143.257 30.416C142.981 30.98 142.573 31.424 142.033 31.748C141.493 32.06 140.881 32.216 140.197 32.216ZM147.221 32V22.982H148.589L148.679 24.584C148.967 24.02 149.381 23.576 149.921 23.252C150.461 22.928 151.073 22.766 151.757 22.766C152.453 22.766 153.059 22.91 153.575 23.198C154.091 23.474 154.493 23.9 154.781 24.476C155.069 25.052 155.213 25.778 155.213 26.654V32H153.701V26.816C153.701 25.904 153.503 25.22 153.107 24.764C152.711 24.296 152.147 24.062 151.415 24.062C150.899 24.062 150.437 24.188 150.029 24.44C149.633 24.692 149.315 25.052 149.075 25.52C148.847 25.988 148.733 26.564 148.733 27.248V32H147.221ZM161.104 32C160.564 32 160.096 31.916 159.7 31.748C159.304 31.58 158.998 31.298 158.782 30.902C158.578 30.494 158.476 29.948 158.476 29.264V24.26H156.91V22.982H158.476L158.674 20.822L159.988 20.822V22.982H162.616V24.26H159.988V29.264C159.988 29.828 160.102 30.212 160.33 30.416C160.558 30.608 160.96 30.704 161.536 30.704H162.49V32H161.104ZM169.425 32V19.4H177.093V20.642H170.937V25.07H176.175V26.294H170.937V32H169.425ZM182.649 32.216C181.809 32.216 181.053 32.024 180.381 31.64C179.709 31.244 179.175 30.692 178.779 29.984C178.395 29.276 178.203 28.448 178.203 27.5C178.203 26.54 178.401 25.706 178.797 24.998C179.193 24.29 179.727 23.744 180.399 23.36C181.083 22.964 181.845 22.766 182.685 22.766C183.537 22.766 184.299 22.964 184.971 23.36C185.643 23.744 186.171 24.29 186.555 24.998C186.939 25.706 187.131 26.54 187.131 27.5C187.131 28.448 186.933 29.276 186.537 29.984C186.153 30.692 185.619 31.244 184.935 31.64C184.263 32.024 183.501 32.216 182.649 32.216ZM182.649 30.92C183.177 30.92 183.663 30.794 184.107 30.542C184.551 30.29 184.905 29.906 185.169 29.39C185.445 28.874 185.583 28.244 185.583 27.5C185.583 26.732 185.451 26.096 185.187 25.592C184.923 25.088 184.569 24.71 184.125 24.458C183.681 24.194 183.201 24.062 182.685 24.062C182.181 24.062 181.701 24.194 181.245 24.458C180.801 24.71 180.441 25.088 180.165 25.592C179.889 26.096 179.751 26.732 179.751 27.5C179.751 28.244 179.889 28.874 180.165 29.39C180.441 29.906 180.795 30.29 181.227 30.542C181.671 30.794 182.145 30.92 182.649 30.92ZM189.251 32V22.982H190.619L190.745 24.71C190.937 24.302 191.189 23.954 191.501 23.666C191.825 23.378 192.209 23.156 192.653 23C193.097 22.844 193.601 22.766 194.165 22.766V24.35H193.679C193.283 24.35 192.905 24.404 192.545 24.512C192.197 24.608 191.885 24.77 191.609 24.998C191.345 25.226 191.135 25.538 190.979 25.934C190.835 26.318 190.763 26.804 190.763 27.392V32H189.251ZM200.731 32V19.4H208.399V20.642H202.243V25.07H207.481V26.294H202.243V32H200.731ZM210.274 32V22.982H211.642L211.768 24.71C211.96 24.302 212.212 23.954 212.524 23.666C212.848 23.378 213.232 23.156 213.676 23C214.12 22.844 214.624 22.766 215.188 22.766V24.35H214.702C214.306 24.35 213.928 24.404 213.568 24.512C213.22 24.608 212.908 24.77 212.632 24.998C212.368 25.226 212.158 25.538 212.002 25.934C211.858 26.318 211.786 26.804 211.786 27.392V32H210.274ZM220.564 32.216C219.712 32.216 218.956 32.024 218.296 31.64C217.636 31.244 217.114 30.692 216.73 29.984C216.358 29.264 216.172 28.436 216.172 27.5C216.172 26.54 216.358 25.712 216.73 25.016C217.102 24.308 217.618 23.756 218.278 23.36C218.95 22.964 219.724 22.766 220.6 22.766C221.476 22.766 222.226 22.964 222.85 23.36C223.474 23.756 223.948 24.272 224.272 24.908C224.608 25.544 224.776 26.24 224.776 26.996C224.776 27.116 224.776 27.248 224.776 27.392C224.776 27.524 224.77 27.674 224.758 27.842L217.306 27.842V26.672L223.282 26.672C223.246 25.844 222.97 25.202 222.454 24.746C221.95 24.278 221.32 24.044 220.564 24.044C220.048 24.044 219.568 24.164 219.124 24.404C218.68 24.632 218.32 24.968 218.044 25.412C217.78 25.856 217.648 26.414 217.648 27.086V27.59C217.648 28.322 217.786 28.94 218.062 29.444C218.338 29.948 218.698 30.326 219.142 30.578C219.586 30.818 220.06 30.938 220.564 30.938C221.188 30.938 221.704 30.8 222.112 30.524C222.532 30.236 222.838 29.846 223.03 29.354H224.524C224.368 29.906 224.11 30.398 223.75 30.83C223.39 31.25 222.94 31.586 222.4 31.838C221.872 32.09 221.26 32.216 220.564 32.216ZM230.812 32.216C229.96 32.216 229.204 32.024 228.544 31.64C227.884 31.244 227.362 30.692 226.978 29.984C226.606 29.264 226.42 28.436 226.42 27.5C226.42 26.54 226.606 25.712 226.978 25.016C227.35 24.308 227.866 23.756 228.526 23.36C229.198 22.964 229.972 22.766 230.848 22.766C231.724 22.766 232.474 22.964 233.098 23.36C233.722 23.756 234.196 24.272 234.52 24.908C234.856 25.544 235.024 26.24 235.024 26.996C235.024 27.116 235.024 27.248 235.024 27.392C235.024 27.524 235.018 27.674 235.006 27.842L227.554 27.842V26.672L233.53 26.672C233.494 25.844 233.218 25.202 232.702 24.746C232.198 24.278 231.568 24.044 230.812 24.044C230.296 24.044 229.816 24.164 229.372 24.404C228.928 24.632 228.568 24.968 228.292 25.412C228.028 25.856 227.896 26.414 227.896 27.086V27.59C227.896 28.322 228.034 28.94 228.31 29.444C228.586 29.948 228.946 30.326 229.39 30.578C229.834 30.818 230.308 30.938 230.812 30.938C231.436 30.938 231.952 30.8 232.36 30.524C232.78 30.236 233.086 29.846 233.278 29.354H234.772C234.616 29.906 234.358 30.398 233.998 30.83C233.638 31.25 233.188 31.586 232.648 31.838C232.12 32.09 231.508 32.216 230.812 32.216Z" fill="#121212"/>
</g>
<path d="M289 31L299 21M299 21V31M299 21H289" stroke="#121212" stroke-width="2" stroke-linecap="round" stroke-linejoin="round"/>
<defs>
<filter id="filter0_d_86_1168" x="32.5423" y="18.684" width="202.981" height="14.032" filterUnits="userSpaceOnUse" color-interpolation-filters="sRGB">
<feFlood flood-opacity="0" result="BackgroundImageFix"/>
<feColorMatrix in="SourceAlpha" type="matrix" values="0 0 0 0 0 0 0 0 0 0 0 0 0 0 0 0 0 0 127 0" result="hardAlpha"/>
<feOffset/>
<feGaussianBlur stdDeviation="0.25"/>
<feComposite in2="hardAlpha" operator="out"/>
<feColorMatrix type="matrix" values="0 0 0 0 1 0 0 0 0 1 0 0 0 0 1 0 0 0 1 0"/>
<feBlend mode="normal" in2="BackgroundImageFix" result="effect1_dropShadow_86_1168"/>
<feBlend mode="normal" in="SourceGraphic" in2="effect1_dropShadow_86_1168" result="shape"/>
</filter>
<linearGradient id="paint0_linear_86_1168" x1="160" y1="0" x2="160" y2="52" gradientUnits="userSpaceOnUse">
<stop stop-color="#BEBEBE"/>
<stop offset="0.84" stop-color="white" stop-opacity="0"/>
</linearGradient>
<linearGradient id="paint1_linear_86_1168" x1="160" y1="0" x2="160" y2="52" gradientUnits="userSpaceOnUse">
<stop stop-color="white"/>
<stop offset="1" stop-color="white" stop-opacity="0"/>
</linearGradient>
</defs>
</svg>
